<svg height="512pt" viewBox="-6 0 512 512" width="512pt" xmlns="http://www.w3.org/2000/svg"><path d="m250.433594 512c-9.21875 0-16.695313-7.476562-16.695313-16.695312v-478.609376c0-9.21875 7.476563-16.695312 16.695313-16.695312 9.222656 0 16.695312 7.476562 16.695312 16.695312v478.609376c0 9.21875-7.472656 16.695312-16.695312 16.695312zm0 0" fill="#736056"/><path d="m100.175781 178.085938c-36.824219 0-66.785156-29.957032-66.785156-66.78125 0-36.824219 29.960937-66.78125 66.785156-66.78125s66.78125 29.957031 66.78125 66.78125c0 36.824218-29.957031 66.78125-66.78125 66.78125zm0-100.171876c-18.414062 0-33.394531 14.976563-33.394531 33.390626 0 18.410156 14.980469 33.390624 33.394531 33.390624 18.410157 0 33.390625-14.980468 33.390625-33.390624 0-18.414063-14.980468-33.390626-33.390625-33.390626zm0 0" fill="#4dc3ff"/><path d="m400.695312 178.085938c-36.824218 0-66.78125-29.957032-66.78125-66.78125 0-36.824219 29.957032-66.78125 66.78125-66.78125 36.824219 0 66.785157 29.957031 66.785157 66.78125 0 36.824218-29.960938 66.78125-66.785157 66.78125zm0-100.171876c-18.410156 0-33.390624 14.976563-33.390624 33.390626 0 18.410156 14.980468 33.390624 33.390624 33.390624 18.414063 0 33.390626-14.980468 33.390626-33.390624 0-18.414063-14.976563-33.390626-33.390626-33.390626zm0 0" fill="#e6563a"/><path d="m100.175781 478.609375c-27.621093 0-50.089843-22.46875-50.089843-50.085937v-63.757813l-49.023438-130.730469c-1.921875-5.125-1.207031-10.871094 1.910156-15.371094 3.121094-4.5 8.246094-7.1875 13.722656-7.1875h166.957032c5.476562 0 10.605468 2.6875 13.722656 7.1875s3.832031 10.246094 1.910156 15.371094l-49.023437 130.730469v63.757813c0 27.617187-22.46875 50.085937-50.085938 50.085937zm-59.386719-233.738281 41.625 111.003906c.703126 1.875 1.066407 3.863281 1.066407 5.863281v66.785157c0 9.203124 7.488281 16.695312 16.695312 16.695312 9.203125 0 16.695313-7.492188 16.695313-16.695312v-66.785157c0-2 .359375-3.988281 1.0625-5.863281l41.628906-111.003906zm0 0" fill="#4dc3ff"/><path d="m400.695312 478.609375c-27.617187 0-50.085937-22.46875-50.085937-50.085937v-50.089844h-33.390625c-5.476562 0-10.605469-2.683594-13.722656-7.183594-3.121094-4.503906-3.832032-10.246094-1.910156-15.375l50.085937-133.5625c2.441406-6.515625 8.671875-10.835938 15.632813-10.835938h66.78125c6.960937 0 13.191406 4.320313 15.632812 10.835938l50.089844 133.5625c1.921875 5.128906 1.207031 10.871094-1.910156 15.375-3.121094 4.5-8.246094 7.183594-13.722657 7.183594h-33.394531v50.089844c0 27.617187-22.46875 50.085937-50.085938 50.085937zm-59.386718-133.566406h25.996094c9.21875 0 16.695312 7.476562 16.695312 16.695312v66.785157c0 9.203124 7.488281 16.695312 16.695312 16.695312 9.207032 0 16.695313-7.492188 16.695313-16.695312v-66.785157c0-9.21875 7.476563-16.695312 16.695313-16.695312h25.996093l-37.566406-100.171875h-43.640625zm0 0" fill="#e6563a"/></svg>