<svg height="512pt" viewBox="-11 0 512 512.001" width="512pt" xmlns="http://www.w3.org/2000/svg"><path d="m388.078125 213.269531.050781 31.386719c.011719 7.160156-5.792968 12.976562-12.953125 12.976562h-75.878906v48.355469.78125c.023437-.261719.03125-.53125.03125-.796875l.050781 31.386719c.011719 7.160156-5.792968 12.976563-12.953125 12.976563h-75.878906l-.027344 48.375.050781 31.355468c.011719 7.160156-5.792968 12.972656-12.957031 12.972656h-75.875v50.730469c0 4.542969 3.6875 8.230469 8.230469 8.230469h71.90625c8.039062 0 15.726562-3.285156 21.289062-9.089844l80.074219-83.628906 169.375-176.894531c5.253907-5.484375 8.183594-12.789063 8.183594-20.382813v-47.003906h-92.71875zm0 0" fill="#59dbff"/><g fill="#c2f2ff"><path d="m472.566406 131.121094h-61.511718c-12.6875 0-22.976563 10.285156-22.976563 22.976562v10.902344h92.71875v-25.648438c0-4.546874-3.683594-8.230468-8.230469-8.230468zm0 0"/><path d="m299.378906 337.355469-.050781-31.382813c0 .265625-.007813.53125-.03125.792969-.265625 3.59375-2.328125 6.6875-5.292969 8.382813-1.546875.886718-3.335937 1.394531-5.246094 1.394531h-55.230468c-4.171875 0-8.082032 1.109375-11.453125 3.050781-6.890625 3.96875-11.527344 11.40625-11.527344 19.925781v10.816407h75.875c7.164063-.003907 12.96875-5.816407 12.957031-12.980469zm0 0"/><path d="m210.570312 430.0625-.054687-31.351562v-.03125c0 5.835937-4.730469 10.570312-10.566406 10.570312h-55.234375c-12.6875 0-22.976563 10.285156-22.976563 22.976562v10.8125h75.875c7.164063 0 12.96875-5.8125 12.957031-12.976562zm0 0"/><path d="m388.128906 244.652344-.050781-31.382813v.195313c0 .019531-.003906.039062-.003906.0625 0 .042968 0 .085937-.003907.132812 0 .023438 0 .050782-.003906.074219 0 .039063 0 .078125-.003906.117187 0 .027344-.003906.050782-.003906.078126-.003906.039062-.007813.078124-.007813.117187-.003906.023437-.003906.050781-.007812.074219-.003907.039062-.003907.074218-.007813.113281-.003906.027344-.007812.054687-.007812.085937-.003906.035157-.007813.070313-.011719.105469-.003906.027344-.007813.054688-.011719.085938-.003906.035156-.007812.066406-.011718.101562-.003907.03125-.007813.058594-.011719.085938-.003907.039062-.011719.078125-.015625.117187-.003906.023438-.007813.046875-.011719.070313-.007813.058593-.019531.121093-.03125.179687 0 .019532-.003906.039063-.007813.054688-.007812.042968-.015624.089844-.027343.136718-.003907.019532-.007813.039063-.007813.058594-.007812.039063-.019531.082032-.027344.125-.003906.023438-.011718.050782-.015624.074219-.007813.035156-.015626.070313-.023438.105469-.664062 2.917968-2.535156 5.375-5.058594 6.824218-1.546875.882813-3.339844 1.390626-5.246094 1.390626h-55.234374c-4.167969 0-8.078126 1.113281-11.449219 3.054687-6.890625 3.96875-11.527344 11.40625-11.527344 19.925781v10.8125h75.875c7.164063 0 12.96875-5.8125 12.957031-12.976562zm0 0"/></g><path d="m403.085938 295c-5.519532 0-10 4.476562-10 10s4.480468 10 10 10h.027343c5.523438 0 9.984375-4.476562 9.984375-10s-4.488281-10-10.011718-10zm0 0"/><path d="m369.460938 28.007812c1.5-1.238281 10.136718-8.007812 19.835937-8.007812 15.875 0 28.792969 12.914062 28.792969 28.789062 0 15.878907-12.917969 28.792969-28.722656 28.792969-1.703126-.011719-8.355469-.773437-12.617188-4.132812l11.027344-11.714844c3.785156-4.023437 3.59375-10.351563-.429688-14.136719-4.023437-3.785156-10.351562-3.59375-14.136718.429688l-12.167969 12.933594c-6.726563 7.144531-6.65625 18.273437.160156 25.339843 10.46875 10.847657 26.257813 11.269531 28.09375 11.28125 26.902344 0 48.792969-21.886719 48.792969-48.792969 0-26.902343-21.890625-48.789062-48.792969-48.789062-18.097656 0-31.890625 11.9375-33.402344 13.296875-.183593.167969-.363281.339844-.535156.519531l-286.726563 299.460938c-1.5 1.242187-10.136718 8.007812-19.839843 8.007812-15.875 0-28.792969-12.914062-28.792969-28.789062 0-15.847656 12.871094-28.746094 28.707031-28.792969 2.320313.058594 8.570313.929687 12.632813 4.132813l-11.027344 11.71875c-3.785156 4.019531-3.59375 10.351562.429688 14.136718 4.019531 3.78125 10.347656 3.59375 14.136718-.429687l12.167969-12.9375c6.726563-7.144531 6.65625-18.273438-.160156-25.335938-10.46875-10.851562-26.257813-11.273437-28.09375-11.285156-26.90625 0-48.792969 21.890625-48.792969 48.792969s21.886719 48.789062 48.792969 48.789062c18.097656 0 31.886719-11.933594 33.402343-13.292968.183594-.167969.363282-.339844.535157-.519532zm0 0"/><path d="m490.792969 138.882812c-.25-9.839843-8.332031-17.765624-18.226563-17.765624h-61.511718c-18.183594 0-32.976563 14.796874-32.976563 32.980468v59.171875c0 .316407-.253906.570313-.570313.570313h-55.230468c-18.183594 0-32.980469 14.792968-32.980469 32.976562v59.175782c0 .207031-.113281.390624-.28125.488281-.078125.039062-.164063.0625-.257813.0625h-55.230468c-5.695313 0-11.058594 1.453125-15.738282 4.003906 0 .003906-.003906.003906-.007812.003906-.105469.058594-.207031.113281-.3125.171875-10.101562 5.644532-16.949219 16.445313-16.949219 28.816406v59.140626c0 .316406-.257812.570312-.570312.570312h-55.230469c-18.183594 0-32.980469 14.796875-32.980469 32.980469v61.539062c0 10.054688 8.179688 18.230469 18.234375 18.230469h71.902344c10.710938 0 21.101562-4.4375 28.511719-12.171875l152.191406-158.945313c3.820313-3.988281 3.679687-10.320312-.308594-14.140624-3.988281-3.820313-10.316406-3.679688-14.136719.308593l-152.195312 158.941407c-3.652344 3.820312-8.78125 6.007812-14.066406 6.007812h-70.132813v-38.960938h65.875c6.140625 0 11.910157-2.390624 16.246094-6.734374s6.71875-10.117188 6.710937-16.257813l-.054687-69.714844h65.90625c6.140625 0 11.910156-2.390625 16.246094-6.734375 4.335937-4.34375 6.71875-10.117187 6.710937-16.257812l-.082031-69.707032h65.875c6.140625 0 11.910156-2.394531 16.246094-6.738281 4.335937-4.34375 6.722656-10.117187 6.710937-16.257812l-.050781-69.636719h72.71875v37.003906c0 5.042969-1.917969 9.824219-5.40625 13.46875l-42.101563 43.96875c-3.820312 3.988282-3.679687 10.320313.308594 14.140625 3.988282 3.820313 10.316406 3.679688 14.136719-.308593l42.101563-43.96875c7.070312-7.382813 10.960937-17.078126 10.960937-27.300782v-72.652344c0-.15625 0-.3125-.003906-.46875zm-291.085938 293.292969c-.398437.394531-1.082031.863281-2.09375.863281h-65.875v-.78125c0-7.15625 5.820313-12.976562 12.980469-12.976562h55.230469c.203125 0 .402343-.003906.601562-.011719l.019531 10.8125c0 1.011719-.46875 1.695313-.863281 2.09375zm88.808594-92.710937c-.394531.398437-1.078125.867187-2.089844.867187h-65.878906v-.8125c0-4.855469 2.679687-9.09375 6.640625-11.320312 1.867188-1.042969 4.019531-1.640625 6.308594-1.640625h55.230468c.214844 0 .425782-.003906.636719-.007813l.015625 10.820313c0 1.015625-.46875 1.699218-.863281 2.09375zm88.75-92.699219c-.394531.394531-1.078125.867187-2.089844.867187h-65.878906v-.816406c0-7.15625 5.824219-12.976562 12.980469-12.976562h55.230468c.09375 0 .191407 0 .285157-.003906h.085937c.070313 0 .136719-.003907.207032-.007813h.027343l.015625 10.84375c0 1.011719-.46875 1.695313-.863281 2.09375zm20.8125-91.765625v-.902344c0-.222656.007813-.445312.015625-.667968.007812-.109376.015625-.21875.023438-.328126.011718-.164062.027343-.328124.046874-.492187.011719-.105469.027344-.214844.039063-.324219.007813-.054687.015625-.105468.023437-.160156.019532-.105469.035157-.214844.054688-.320312.011719-.054688.019531-.105469.03125-.160157 1.148438-5.988281 6.425781-10.523437 12.742188-10.523437h59.742187v13.878906zm0 0"/></svg>