<svg id="Capa_1" enable-background="new 0 0 512 512" height="512" viewBox="0 0 512 512" width="512" xmlns="http://www.w3.org/2000/svg"><g><g><g><path d="m30 301.867v195c0 8.28 6.72 15 15 15h452c8.28 0 15-6.72 15-15v-195z"/></g></g><g><path d="m220.78 181.867-90 90h-85.78c41.36 0 75-33.65 75-75 0-5.13-.52-10.15-1.51-15z"/><path d="m340.79 181.867-90.01 90h-77.56l90-90z"/><path d="m460.79 181.867-90.01 90h-77.56l89.99-90z"/><path d="m512 196.867v75h-98.78l89.04-89.05c5.69 2.131 9.74 7.621 9.74 14.05z"/></g><g><path d="m186.19 151.867h-81.23c-13.69-18.2-35.47-30-59.96-30-10.38 0-20.27 2.12-29.27 5.94l-3.74-18c-1.69-8.12 3.53-16.06 11.65-17.74l54.23-11.23z"/><path d="m195.49 56.497 142.02 93.13-76.04 15.73-142.03-93.119 76.04-15.741z"/><path d="m313.1 32.147 142.03 93.13-76.03 15.74-142.03-93.13z"/><path d="m495.58 115.937-140.91-92.4 111.54-23.09c8.1-1.68 16.04 3.53 17.73 11.64l18.32 88.11c1.31 6.311-1.54 12.501-6.68 15.74z"/></g><g><g><path d="m45 151.867c-24.81 0-45 20.19-45 45s20.19 45 45 45 45-20.19 45-45-20.19-45-45-45z"/></g></g></g></svg>